<svg width="325" height="325" viewBox="0 0 325 325" fill="none" xmlns="http://www.w3.org/2000/svg">
<circle cx="162.5" cy="162.5" r="162.5" fill="#1351B4"/>
<path d="M45.5 104.5V81.5H172.5V244.5H232V268.5L149.5 268V104.5H45.5Z" fill="white"/>
<path d="M137.913 159.65C137.157 147.34 131.542 135.835 122.304 127.666C113.065 119.496 100.959 115.332 88.6501 116.088C76.3407 116.844 64.8358 122.459 56.6664 131.697C48.497 140.936 44.3322 153.041 45.0882 165.351L65.2894 164.11C64.8625 157.158 67.2145 150.322 71.8282 145.104C76.4418 139.887 82.9392 136.716 89.8908 136.289C96.8425 135.862 103.679 138.214 108.897 142.828C114.114 147.441 117.285 153.939 117.712 160.89L137.913 159.65Z" fill="white"/>
<path d="M278.539 128.929C278.516 119.072 275.361 109.477 269.529 101.53C263.698 93.5825 255.492 87.6939 246.096 84.7142C236.7 81.7344 226.6 81.8176 217.254 84.9518C207.908 88.086 199.8 94.109 194.101 102.151C188.401 110.194 185.405 119.839 185.544 129.695C185.683 139.552 188.951 149.109 194.875 156.987C200.8 164.865 209.075 170.657 218.505 173.526C227.936 176.395 238.034 176.192 247.342 172.949L240.681 153.837C235.425 155.669 229.722 155.783 224.396 154.162C219.07 152.542 214.397 149.271 211.051 144.822C207.705 140.373 205.86 134.976 205.781 129.41C205.703 123.843 207.395 118.396 210.614 113.854C213.833 109.312 218.411 105.911 223.689 104.141C228.967 102.371 234.671 102.324 239.978 104.007C245.284 105.689 249.918 109.015 253.212 113.503C256.505 117.991 258.287 123.41 258.3 128.977L278.539 128.929Z" fill="white"/>
</svg>
